<svg xmlns="http://www.w3.org/2000/svg" xmlns:xlink="http://www.w3.org/1999/xlink" width="318" height="347" viewBox="0 0 318 347">
  <defs>
    <filter id="Union_2" x="0" y="0" width="318" height="347" filterUnits="userSpaceOnUse">
      <feOffset dy="3" input="SourceAlpha"/>
      <feGaussianBlur stdDeviation="3" result="blur"/>
      <feFlood flood-opacity="0.161"/>
      <feComposite operator="in" in2="blur"/>
      <feComposite in="SourceGraphic"/>
    </filter>
    <filter id="Union_1" x="44" y="66" width="230" height="207.93" filterUnits="userSpaceOnUse">
      <feOffset dx="3" dy="3" input="SourceAlpha"/>
      <feGaussianBlur stdDeviation="3" result="blur-2"/>
      <feFlood flood-opacity="0.161" result="color"/>
      <feComposite operator="out" in="SourceGraphic" in2="blur-2"/>
      <feComposite operator="in" in="color"/>
      <feComposite operator="in" in2="SourceGraphic"/>
    </filter>
    <filter id="Rectangle_4">
      <feOffset dy="3" input="SourceAlpha"/>
      <feGaussianBlur stdDeviation="3" result="blur-3"/>
      <feFlood flood-opacity="0.161" result="color-2"/>
      <feComposite operator="out" in="SourceGraphic" in2="blur-3"/>
      <feComposite operator="in" in="color-2"/>
      <feComposite operator="in" in2="SourceGraphic"/>
    </filter>
    <filter id="Rectangle_6" x="222.008" y="234.2" width="43.055" height="32.363" filterUnits="userSpaceOnUse">
      <feOffset dy="3" input="SourceAlpha"/>
      <feGaussianBlur stdDeviation="3" result="blur-4"/>
      <feFlood flood-opacity="0.161" result="color-3"/>
      <feComposite operator="out" in="SourceGraphic" in2="blur-4"/>
      <feComposite operator="in" in="color-3"/>
      <feComposite operator="in" in2="SourceGraphic"/>
    </filter>
  </defs>
  <g id="Group_1" data-name="Group 1" transform="translate(-584 -119)">
    <g transform="matrix(1, 0, 0, 1, 584, 119)" filter="url(#Union_2)">
      <path id="Union_2-2" data-name="Union 2" d="M-1990.762,329a5,5,0,0,1-5-5V300h-22.115a32,32,0,0,1-22.627-9.373l-69.123-69.123A32,32,0,0,1-2119,198.878V101.123a32,32,0,0,1,9.373-22.628L-2040.5,9.373A32,32,0,0,1-2017.877,0h97.754A32,32,0,0,1-1897.5,9.373l69.123,69.123A32,32,0,0,1-1819,101.123v97.754a32,32,0,0,1-9.373,22.627l-69.123,69.123A32,32,0,0,1-1920.123,300h-25.639v24a5,5,0,0,1-5,5Z" transform="translate(2128 6)" fill="#f0f0f0"/>
    </g>
    <g data-type="innerShadowGroup">
      <path id="Union_1-2" data-name="Union 1" d="M-1940.054,204.929l-13.5-23.383a6.008,6.008,0,0,1-.627-1.546h-121.413a116.3,116.3,0,0,1-9.724-8.683,115.9,115.9,0,0,1-14.043-17.019,115.14,115.14,0,0,1-10.6-19.535,114.37,114.37,0,0,1-6.7-21.587A115.8,115.8,0,0,1-2119,90a115.58,115.58,0,0,1,3.062-26.474,114.413,114.413,0,0,1,8.722-24.291,115.368,115.368,0,0,1,13.679-21.408A115.878,115.878,0,0,1-2075.6,0H-1932.4a115.867,115.867,0,0,1,17.94,17.826,115.236,115.236,0,0,1,13.68,21.408,114.35,114.35,0,0,1,8.721,24.291A115.544,115.544,0,0,1-1889,90a115.8,115.8,0,0,1-2.336,23.176,114.462,114.462,0,0,1-6.7,21.587,115.042,115.042,0,0,1-9.326,17.6,5.986,5.986,0,0,1,1.44,1.681l13.5,23.383a6,6,0,0,1-2.2,8.2l-37.239,21.5a5.971,5.971,0,0,1-2.994.8A6,6,0,0,1-1940.054,204.929Z" transform="translate(2747 185)" fill="#ff4500"/>
      <g transform="matrix(1, 0, 0, 1, 584, 119)" filter="url(#Union_1)">
        <path id="Union_1-3" data-name="Union 1" d="M-1940.054,204.929l-13.5-23.383a6.008,6.008,0,0,1-.627-1.546h-121.413a116.3,116.3,0,0,1-9.724-8.683,115.9,115.9,0,0,1-14.043-17.019,115.14,115.14,0,0,1-10.6-19.535,114.37,114.37,0,0,1-6.7-21.587A115.8,115.8,0,0,1-2119,90a115.58,115.58,0,0,1,3.062-26.474,114.413,114.413,0,0,1,8.722-24.291,115.368,115.368,0,0,1,13.679-21.408A115.878,115.878,0,0,1-2075.6,0H-1932.4a115.867,115.867,0,0,1,17.94,17.826,115.236,115.236,0,0,1,13.68,21.408,114.35,114.35,0,0,1,8.721,24.291A115.544,115.544,0,0,1-1889,90a115.8,115.8,0,0,1-2.336,23.176,114.462,114.462,0,0,1-6.7,21.587,115.042,115.042,0,0,1-9.326,17.6,5.986,5.986,0,0,1,1.44,1.681l13.5,23.383a6,6,0,0,1-2.2,8.2l-37.239,21.5a5.971,5.971,0,0,1-2.994.8A6,6,0,0,1-1940.054,204.929Z" transform="translate(2163 66)" fill="#fff"/>
      </g>
    </g>
    <g data-type="innerShadowGroup">
      <rect id="Rectangle_4-2" data-name="Rectangle 4" width="150" height="82" rx="27" transform="translate(668 234)" fill="#f0f0f0"/>
      <g transform="matrix(1, 0, 0, 1, 584, 119)" filter="url(#Rectangle_4)">
        <rect id="Rectangle_4-3" data-name="Rectangle 4" width="150" height="82" rx="27" transform="translate(84 115)" fill="#fff"/>
      </g>
    </g>
    <g data-type="innerShadowGroup">
      <rect id="Rectangle_6-2" data-name="Rectangle 6" width="42.21" height="13" rx="6" transform="translate(806.008 374.305) rotate(-30)" fill="#fff"/>
      <g transform="matrix(1, 0, 0, 1, 584, 119)" filter="url(#Rectangle_6)">
        <rect id="Rectangle_6-3" data-name="Rectangle 6" width="42.21" height="13" rx="6" transform="translate(222.01 255.3) rotate(-30)" fill="#fff"/>
      </g>
    </g>
  </g>
</svg>
